<?xml version="1.0" encoding="UTF-8" standalone="no"?><!DOCTYPE svg PUBLIC "-//W3C//DTD SVG 1.1//EN" "http://www.w3.org/Graphics/SVG/1.1/DTD/svg11.dtd"><svg width="100%" height="100%" viewBox="0 0 713 167" version="1.1" xmlns="http://www.w3.org/2000/svg" xmlns:xlink="http://www.w3.org/1999/xlink" xml:space="preserve" xmlns:serif="http://www.serif.com/" style="fill-rule:evenodd;clip-rule:evenodd;stroke-linejoin:round;stroke-miterlimit:2;"><g><g><path d="M172.057,62.788l0,-40.462l52.755,0l0,17.172l5.153,0l0,-17.172l155.717,0l-0,3.848c-0.049,-0.001 -0.098,-0.001 -0.146,-0.001c-3.393,-0 -6.147,2.539 -6.147,5.666c0,3.127 2.754,5.665 6.147,5.665c0.048,0 0.097,-0 0.146,-0.001l-0,3.412c-0.049,-0.001 -0.098,-0.002 -0.146,-0.002c-3.393,0 -6.147,2.539 -6.147,5.666c0,3.127 2.754,5.666 6.147,5.666c0.048,-0 0.097,-0.001 0.146,-0.002l-0,3.141c-0.049,-0.001 -0.098,-0.001 -0.146,-0.001c-3.393,-0 -6.147,2.538 -6.147,5.665c0,3.127 2.754,5.666 6.147,5.666c0.048,0 0.097,-0 0.146,-0.001l-0,3.411c-0.049,-0.001 -0.098,-0.001 -0.146,-0.001c-3.393,-0 -6.147,2.539 -6.147,5.666c0,3.127 2.754,5.666 6.147,5.666c0.048,-0 0.097,-0.001 0.146,-0.002l-0,3.381c-0.049,-0.001 -0.098,-0.001 -0.146,-0.001c-3.393,-0 -6.147,2.538 -6.147,5.665c0,3.128 2.754,5.666 6.147,5.666c0.048,0 0.097,-0 0.146,-0.001l-0,3.412c-0.049,-0.001 -0.098,-0.002 -0.146,-0.002c-3.393,0 -6.147,2.539 -6.147,5.666c0,3.127 2.754,5.666 6.147,5.666c0.048,-0 0.097,-0.001 0.146,-0.002l-0,3.141c-0.049,-0.001 -0.098,-0.002 -0.146,-0.002c-3.393,0 -6.147,2.539 -6.147,5.666c0,3.127 2.754,5.666 6.147,5.666c0.048,-0 0.097,-0.001 0.146,-0.002l-0,3.412c-0.049,-0.001 -0.098,-0.001 -0.146,-0.001c-3.393,-0 -6.147,2.538 -6.147,5.666c0,3.127 2.754,5.665 6.147,5.665c0.048,0 0.097,-0 0.146,-0.001l-0,4.228l-155.717,-0l0,-17.695l-5.153,0l0,17.695l-52.755,-0l0,-40.462c0.343,0.014 0.687,0.021 1.033,0.021c12.315,0 22.312,-9.215 22.312,-20.567c0,-11.351 -9.997,-20.567 -22.312,-20.567c-0.346,0 -0.69,0.008 -1.033,0.022Zm103.579,21.924l-0,-5.152c-0,-1.921 -0.495,-3.406 -1.485,-4.454c-0.99,-1.048 -2.358,-1.572 -4.104,-1.572c-1.747,0 -3.115,0.524 -4.105,1.572c-0.989,1.048 -1.484,2.533 -1.484,4.454l-0,33.36c-0,1.921 0.495,3.405 1.484,4.453c0.99,1.048 2.358,1.572 4.105,1.572c1.746,0 3.114,-0.524 4.104,-1.572c0.99,-1.048 1.485,-2.532 1.485,-4.453l-0,-10.829l-5.589,-0l-0,-8.733l14.846,-0l-0,19.562c-0,4.424 -1.369,7.99 -4.105,10.697c-2.736,2.707 -6.317,4.061 -10.741,4.061c-4.425,0 -8.005,-1.354 -10.742,-4.061c-2.736,-2.707 -4.104,-6.273 -4.104,-10.697l-0,-33.36c-0,-4.425 1.368,-7.991 4.104,-10.698c2.737,-2.707 6.317,-4.06 10.742,-4.06c4.424,-0 8.005,1.353 10.741,4.06c2.736,2.707 4.105,6.273 4.105,10.698l-0,5.152l-9.257,0Zm24.364,-19.037l26.286,-0l0,8.733l-17.029,-0l0,17.029l13.536,-0l0,8.733l-13.536,-0l0,17.902l17.029,-0l0,8.733l-26.286,-0l0,-61.13Zm37.202,-0l29.517,-0l0,8.733l-10.13,-0l0,52.397l-9.256,-0l-0,-52.397l-10.131,-0l0,-8.733Zm-112.39,33.675l0,22.218l5.153,0l0,-22.218l-5.153,0Zm0,-27.618l0,22.219l5.153,-0l0,-22.219l-5.153,0Zm0,-27.296l0,22.219l5.153,-0l0,-22.219l-5.153,0Zm51.349,-10.071c-2.694,-0 -4.881,2.015 -4.881,4.498c0,2.483 2.187,4.499 4.881,4.499l85.187,-0c2.694,-0 4.88,-2.016 4.88,-4.499c0,-2.483 -2.186,-4.498 -4.88,-4.498l-85.187,-0Z" style="fill:#b08f3d;"/><text x="396.787px" y="126.805px" style="font-family:'Bebas-Regular', 'Bebas', sans-serif;font-size:87.329px;fill:#b08f3d;"><tspan x="396.787px 434.164px 468.834px 508.83px " y="126.805px 126.805px 126.805px 126.805px ">Slot</tspan></text></g></g></svg>